<?xml version="1.0" standalone="no"?>
<!DOCTYPE svg PUBLIC "-//W3C//DTD SVG 20010904//EN"
 "http://www.w3.org/TR/2001/REC-SVG-20010904/DTD/svg10.dtd">
<svg version="1.0" xmlns="http://www.w3.org/2000/svg"
 width="512.000000pt" height="512.000000pt" viewBox="0 0 512.000000 512.000000"
 preserveAspectRatio="xMidYMid meet">
<metadata>
Created by potrace 1.11, written by Peter Selinger 2001-2013
</metadata>
<g transform="translate(0.000000,512.000000) scale(0.100000,-0.100000)"
fill="#000000" stroke="none">
<path d="M2230 5045 c-25 -7 -55 -14 -68 -14 -34 -1 -97 -35 -255 -140 -69
-45 -151 -167 -177 -261 -19 -68 -22 -285 -6 -345 8 -27 14 -72 14 -99 0 -55
6 -61 70 -71 50 -7 92 -24 92 -36 0 -5 7 -6 15 -3 9 4 41 -3 73 -15 51 -19 59
-26 75 -66 31 -75 107 -125 190 -125 l27 0 -21 -21 c-12 -12 -29 -40 -40 -63
-18 -42 -18 -44 0 -108 21 -73 48 -121 65 -115 6 2 24 23 40 46 15 23 39 47
51 53 28 12 135 2 135 -14 0 -5 -6 -8 -14 -5 -9 4 -18 -7 -26 -32 -17 -54 -2
-81 48 -82 20 0 45 -4 54 -7 16 -6 14 -11 -12 -36 -17 -16 -37 -41 -45 -56
-13 -25 -54 -50 -63 -39 -2 2 -8 -4 -13 -13 -9 -17 -24 -17 -123 -3 l-39 5 25
-32 c15 -20 39 -36 59 -41 19 -4 64 -17 101 -29 65 -20 66 -21 70 -58 2 -21
-1 -38 -6 -37 -15 3 -57 -65 -54 -88 1 -11 -5 -36 -15 -55 -9 -19 -17 -41 -19
-49 -2 -8 -9 -23 -17 -32 -8 -10 -16 -26 -17 -35 -5 -35 22 -45 148 -52 111
-5 118 -7 76 -15 -61 -12 -68 -32 -20 -54 l37 -17 -80 -6 -80 -5 54 -13 c64
-15 123 -41 116 -52 -3 -4 9 -10 26 -14 27 -5 30 -8 19 -21 -11 -13 -9 -15 9
-12 36 5 136 -19 133 -32 -2 -8 4 -10 17 -6 11 3 23 0 27 -6 4 -7 3 -10 -2 -7
-14 9 -29 -14 -29 -42 0 -14 -4 -31 -9 -38 -6 -8 -6 -12 0 -11 20 3 26 -2 16
-14 -8 -10 -6 -13 7 -14 15 -1 17 3 13 20 -5 20 -4 21 12 8 9 -8 14 -16 11
-19 -2 -3 3 -11 13 -18 16 -12 15 -13 -5 -14 -13 0 -23 -4 -23 -9 0 -14 41 0
47 17 5 11 10 10 25 -9 16 -21 17 -21 12 -4 -4 14 -3 16 4 7 11 -16 10 -101
-2 -121 -7 -10 -4 -11 13 -1 12 6 18 16 15 22 -5 8 -1 9 11 4 28 -10 60 18 74
65 7 24 19 55 28 67 13 22 13 26 -6 45 -11 12 -32 65 -46 117 -14 52 -38 128
-52 169 -14 41 -32 99 -38 130 -7 31 -16 64 -20 74 -12 28 27 21 70 -13 20
-16 46 -32 58 -36 52 -16 53 -51 2 -104 -36 -38 -41 -93 -15 -196 21 -84 52
-154 69 -154 4 0 20 -11 35 -23 22 -19 26 -29 20 -50 -4 -17 -1 -33 7 -44 12
-15 12 -16 -3 -10 -10 3 -18 2 -18 -3 0 -6 5 -10 12 -10 6 0 8 -3 5 -7 -4 -3
0 -14 9 -24 15 -17 18 -17 40 -2 13 8 24 21 24 28 0 7 10 20 23 29 14 10 16
14 5 10 -12 -4 -18 -1 -18 8 0 18 20 38 39 38 8 0 12 -3 8 -6 -3 -3 3 -15 13
-26 18 -20 19 -20 97 10 170 66 320 92 496 87 64 -2 117 -3 117 -1 0 8 -88
118 -126 158 -53 55 -283 209 -369 248 -33 15 -118 46 -190 70 -169 55 -265
99 -323 151 -26 22 -66 52 -88 65 -23 14 -55 44 -70 67 -28 41 -29 41 -34 17
-2 -14 -7 9 -10 50 -3 46 -9 74 -16 73 -6 -1 -11 5 -11 14 0 17 2 20 67 94 48
55 67 99 74 165 3 27 3 41 0 32 -7 -23 -16 -23 -37 2 -18 21 -23 45 -8 35 5
-3 13 0 17 7 4 7 3 10 -1 5 -12 -11 -45 23 -45 47 0 12 6 33 14 47 12 23 14
69 5 94 -2 6 6 23 19 39 21 27 22 27 22 7 0 -12 3 -20 8 -18 4 3 5 -15 3 -40
-2 -34 0 -44 9 -38 7 5 10 19 6 37 -3 17 -2 27 4 23 16 -10 50 155 50 248 0
44 -1 47 -27 48 -27 1 -27 1 -4 8 21 6 22 8 8 19 -12 10 -21 11 -36 3 -30 -17
-31 -14 -15 37 28 86 34 116 35 189 1 62 -3 82 -29 135 -31 64 -64 102 -160
184 -140 118 -212 146 -487 188 -16 2 -50 -2 -75 -9z m110 -481 c0 -11 -6 -14
-20 -9 -11 4 -20 2 -20 -4 0 -6 -5 -10 -12 -8 -17 3 -35 -39 -34 -81 1 -30 5
-38 24 -40 12 -2 22 -7 22 -11 0 -4 12 -6 28 -5 15 1 27 2 27 3 0 10 41 7 51
-4 17 -16 18 -35 3 -35 -5 0 -8 -4 -5 -9 3 -4 -13 -13 -34 -20 -22 -6 -47 -23
-56 -36 -9 -14 -20 -23 -24 -20 -5 3 -11 1 -15 -5 -3 -5 -31 -22 -62 -37 -30
-15 -67 -42 -82 -60 -38 -46 -129 -77 -183 -62 -21 5 -42 17 -45 25 -3 9 4 39
15 67 11 29 25 70 31 92 15 57 78 136 157 197 63 47 76 53 149 64 44 6 81 12
83 13 1 0 2 -6 2 -15z m559 -149 c6 -42 11 -84 10 -93 -1 -28 -21 29 -25 72
-2 22 -9 45 -15 52 -8 10 -8 56 1 84 4 14 20 -47 29 -115z m31 -210 c1 12 4
15 7 7 3 -7 0 -19 -7 -27 -6 -7 -10 -36 -9 -65 2 -42 -1 -55 -20 -73 l-23 -22
17 27 c9 15 16 29 16 32 -1 4 -1 36 0 74 0 46 3 61 9 47 l9 -20 1 20z m-385
-167 c4 -35 9 -79 11 -98 5 -49 -19 -136 -37 -131 -8 3 -33 5 -57 6 -45 2 -68
-14 -59 -39 9 -22 103 -47 151 -40 34 4 38 3 22 -7 -10 -6 -39 -13 -65 -14
-25 -1 -72 -8 -104 -15 -31 -7 -60 -11 -62 -8 -10 10 36 119 55 130 10 6 16
18 13 25 -3 7 3 25 13 41 22 32 38 76 55 146 12 50 22 66 45 66 6 0 14 -28 19
-62z m-329 27 c-1 -8 -5 -17 -8 -21 -4 -3 -4 -12 -1 -20 3 -8 -1 -14 -8 -14
-20 0 -99 32 -99 39 0 11 52 29 87 30 22 1 31 -3 29 -14z m-21 -96 c120 -57
134 -79 53 -79 -61 0 -118 29 -148 76 -19 28 -26 54 -15 54 3 0 53 -23 110
-51z m235 32 c0 -10 -9 -30 -21 -45 -17 -21 -24 -24 -35 -15 -8 6 -11 15 -8
21 3 5 0 16 -8 25 -11 14 -11 16 4 10 9 -3 22 1 28 9 17 20 40 17 40 -5z m-86
-18 c11 -27 -8 -36 -48 -23 -45 14 -46 27 -3 33 17 2 35 5 38 5 4 1 10 -6 13
-15z m76 -68 c0 -8 -4 -15 -10 -15 -5 0 -10 7 -10 15 0 8 5 15 10 15 6 0 10
-7 10 -15z m467 -137 c-3 -7 -5 -2 -5 12 0 14 2 19 5 13 2 -7 2 -19 0 -25z
m-7 -1227 c0 -6 -4 -12 -8 -15 -5 -3 -9 1 -9 9 0 8 4 15 9 15 4 0 8 -4 8 -9z
m330 -31 c0 -5 -4 -10 -9 -10 -6 0 -13 5 -16 10 -3 6 1 10 9 10 9 0 16 -4 16
-10z m80 -26 c0 0 -9 -9 -20 -19 -19 -18 -20 -17 -20 3 0 15 6 20 20 19 11 -1
20 -2 20 -3z m-55 -54 c-3 -5 -11 -10 -16 -10 -6 0 -7 5 -4 10 3 6 11 10 16
10 6 0 7 -4 4 -10z"/>
<path d="M2367 4371 c-3 -12 -1 -21 3 -21 15 0 23 21 12 32 -6 6 -11 2 -15
-11z"/>
<path d="M1717 4065 c-9 -9 -17 -22 -17 -30 0 -15 78 -121 110 -150 21 -18 21
-16 -4 22 -28 46 -35 93 -12 93 8 0 12 -8 9 -22 -4 -27 31 -88 51 -88 37 0 42
10 36 61 -5 39 -14 58 -42 85 -42 43 -104 56 -131 29z"/>
<path d="M1840 4076 c0 -5 14 -24 30 -43 17 -18 30 -28 30 -20 0 7 -13 26 -30
42 -16 16 -30 25 -30 21z"/>
<path d="M2933 3765 c-3 -9 -3 -19 1 -22 3 -4 6 1 6 10 0 8 6 18 13 20 9 4 9
6 -1 6 -7 1 -15 -6 -19 -14z"/>
<path d="M2160 3693 c0 -10 5 -34 11 -53 6 -19 13 -53 16 -74 7 -58 63 -94 63
-40 0 16 -11 35 -30 50 -23 20 -31 37 -36 75 -6 48 -24 79 -24 42z"/>
<path d="M2825 3470 c-3 -5 -1 -10 4 -10 6 0 11 5 11 10 0 6 -2 10 -4 10 -3 0
-8 -4 -11 -10z"/>
<path d="M2056 3342 c-15 -3 -16 -6 -5 -13 11 -7 11 -9 -2 -9 -11 0 -15 -8
-14 -25 3 -20 -1 -25 -18 -25 -18 0 -19 2 -7 10 8 5 11 10 5 10 -5 0 -23 -10
-40 -21 -25 -18 -27 -20 -8 -16 13 3 26 1 29 -4 5 -8 -9 -13 -28 -10 -5 0 -8
-3 -8 -8 0 -5 -13 -11 -29 -14 -16 -4 -54 -22 -85 -42 -31 -19 -66 -39 -78
-44 -86 -32 -259 -240 -241 -288 4 -10 2 -14 -5 -9 -6 3 -13 2 -17 -4 -3 -5
-1 -10 5 -10 6 0 8 -5 5 -10 -4 -6 -10 -8 -15 -5 -4 3 -10 -2 -14 -10 -3 -8
-1 -15 5 -15 6 0 7 -5 4 -10 -4 -6 -10 -8 -14 -6 -4 3 -15 -10 -24 -29 -11
-23 -13 -35 -5 -37 8 -3 8 -9 0 -24 -11 -19 -11 -19 -12 1 -1 16 -4 15 -17 -9
-33 -61 -44 -96 -30 -90 8 3 14 -2 14 -11 0 -8 -5 -15 -11 -15 -6 0 -6 -4 1
-11 8 -8 17 -8 33 1 21 11 22 10 18 -13 -3 -16 0 -28 8 -31 13 -5 18 7 17 40
0 6 6 11 13 11 16 0 19 -33 4 -42 -5 -3 -10 -12 -10 -18 1 -7 8 -3 18 8 9 12
25 24 34 28 15 5 16 3 7 -20 -5 -14 -7 -28 -5 -31 3 -3 11 8 17 24 6 16 13 23
16 16 3 -8 11 -5 23 10 10 13 22 19 26 15 5 -4 2 -12 -6 -17 -12 -8 -10 -10 7
-10 20 0 22 -3 12 -27 l-10 -28 24 29 c15 19 30 27 39 23 12 -4 14 -1 11 13
-3 10 0 21 6 24 6 4 8 18 5 32 -7 27 7 32 30 9 19 -19 36 -19 36 -1 0 20 33
25 46 7 10 -12 14 -12 35 2 13 10 20 17 15 17 -5 0 -3 7 4 15 27 33 30 13 3
-25 -15 -22 -33 -38 -39 -36 -15 6 -80 -51 -70 -61 8 -8 11 -9 44 -12 14 -2
13 -4 -5 -11 -13 -5 -23 -17 -23 -26 0 -10 -5 -14 -16 -10 -8 3 -12 2 -9 -4 9
-15 24 -12 57 11 16 12 32 19 35 16 2 -3 -13 -17 -35 -31 -22 -14 -43 -29 -46
-34 -10 -17 -88 -3 -188 33 -55 19 -103 35 -108 35 -4 0 -4 -18 1 -40 5 -22
11 -88 13 -147 7 -175 18 -287 30 -302 8 -11 8 -13 -1 -7 -9 5 -13 0 -13 -13
0 -12 5 -21 10 -21 6 0 10 5 10 12 0 6 2 9 5 7 2 -3 -1 -22 -7 -42 -12 -40 3
-94 23 -82 5 4 19 -1 30 -11 18 -16 19 -16 19 1 0 11 5 15 15 11 8 -3 15 -1
15 5 0 6 5 7 10 4 6 -3 10 -1 10 4 0 6 8 11 18 11 9 0 13 4 7 8 -14 10 -18 35
-4 26 12 -7 12 -6 -26 171 -13 61 -27 140 -31 176 l-7 66 62 32 c34 17 64 31
68 31 3 0 3 -15 0 -33 -3 -19 -2 -39 3 -46 4 -7 4 -28 0 -47 -6 -26 -5 -34 5
-34 9 0 12 -8 10 -20 -2 -11 0 -18 6 -15 14 9 22 -21 11 -42 -10 -19 8 -78 21
-68 4 3 3 -1 -3 -7 -16 -19 -12 -32 5 -18 13 11 14 10 9 -4 -3 -9 -12 -16 -20
-16 -8 0 -14 -4 -14 -10 0 -5 3 -9 8 -9 4 1 14 1 22 0 10 -2 8 -5 -6 -11 -17
-6 -20 -15 -16 -35 3 -17 9 -24 18 -21 7 3 16 1 19 -4 4 -6 -1 -10 -9 -10 -9
0 -16 -4 -16 -10 0 -5 7 -7 15 -4 21 9 29 -37 18 -106 -9 -58 -9 -59 11 -48
20 10 20 10 6 -7 -11 -14 -1 -11 39 10 54 30 70 53 77 109 3 17 10 33 16 37 7
5 10 11 6 14 -3 4 2 30 11 58 10 29 21 69 25 90 4 21 11 35 16 32 6 -3 7 0 4
8 -3 8 0 43 7 78 6 35 11 96 10 134 -2 83 7 147 20 139 5 -3 9 2 9 10 0 9 -4
16 -9 16 -5 0 -7 9 -4 20 3 11 9 20 13 20 11 0 18 -62 26 -210 8 -158 15 -235
30 -325 4 -27 9 -53 10 -57 1 -5 2 -13 3 -19 1 -13 81 31 81 44 0 6 -9 2 -20
-8 -20 -18 -20 -17 -20 8 0 14 3 33 7 43 6 16 7 16 14 -2 18 -46 8 28 -17 122
-22 84 -25 113 -21 192 5 81 3 98 -14 125 -10 18 -19 43 -19 57 0 14 -7 34
-15 44 -8 11 -15 37 -15 57 0 29 -6 42 -27 58 -25 18 -26 20 -8 21 38 0 96 21
102 36 3 9 -15 38 -46 74 -28 33 -46 60 -39 62 9 3 9 12 0 38 -14 39 -16 80
-3 80 9 0 9 376 0 383 -2 2 -13 1 -23 -1z m-153 -450 c-2 -10 -18 -34 -34 -53
-16 -19 -29 -38 -29 -44 1 -5 7 -1 15 9 8 11 18 16 22 11 5 -4 2 -10 -4 -12
-7 -3 -13 -12 -13 -20 0 -9 -6 -13 -15 -9 -8 3 -15 1 -15 -3 0 -5 6 -11 12
-13 19 -7 -29 -29 -67 -32 -28 -3 -33 0 -32 17 2 21 19 44 100 128 47 49 70
57 60 21z m32 -52 c3 -5 2 -10 -4 -10 -5 0 -13 5 -16 10 -3 6 -2 10 4 10 5 0
13 -4 16 -10z m-371 -199 c-9 -9 -14 -10 -10 -3 9 15 -30 17 -39 2 -3 -5 -10
-10 -16 -10 -14 0 -11 26 6 40 13 11 14 10 8 -6 -5 -15 0 -13 28 9 33 26 34
26 37 6 2 -12 -4 -29 -14 -38z m-133 -24 c-10 -9 -11 -8 -5 6 3 10 9 15 12 12
3 -3 0 -11 -7 -18z m53 -20 c-3 -8 -12 -18 -20 -21 -10 -4 -13 -2 -8 7 21 37
41 47 28 14z m73 -54 c-3 -3 -11 -2 -17 2 -9 6 -9 10 1 16 14 8 27 -7 16 -18z
m263 -18 c-7 -8 -20 -15 -29 -15 -13 1 -13 3 3 15 26 19 42 19 26 0z m-23
-185 c-1 -12 -5 -16 -10 -11 -5 5 -6 14 -3 20 11 16 15 13 13 -9z m95 -20 c3
-16 1 -30 -3 -30 -5 0 -6 -8 -2 -17 3 -10 3 -15 -1 -11 -10 8 -14 98 -5 92 4
-2 9 -17 11 -34z m-49 -70 c-3 -12 -8 -18 -11 -15 -3 2 -11 0 -19 -6 -22 -19
-14 2 9 22 26 24 27 24 21 -1z m97 -414 c0 -2 -7 -7 -16 -10 -8 -3 -12 -2 -9
4 6 10 25 14 25 6z"/>
<path d="M1555 2660 c3 -5 8 -10 11 -10 2 0 4 5 4 10 0 6 -5 10 -11 10 -5 0
-7 -4 -4 -10z"/>
<path d="M1367 2629 c-9 -6 -29 -22 -45 -36 -15 -14 -36 -29 -47 -34 -78 -35
-162 -101 -189 -150 -17 -29 -13 -27 23 14 24 26 53 50 66 53 14 3 29 12 36
20 21 25 35 15 46 -33 l11 -48 -1 54 c-1 58 -5 52 88 128 39 32 46 51 12 32z"/>
<path d="M1336 2519 c-3 -17 -6 -44 -6 -59 0 -30 -23 -82 -35 -81 -5 1 -9 -32
-11 -71 -3 -89 -2 -86 -15 -68 -9 13 -10 13 -6 0 2 -8 9 -14 15 -13 5 1 13 -4
16 -12 3 -8 2 -14 -2 -14 -4 1 -14 1 -22 0 -13 -1 -13 -3 0 -10 8 -6 18 -7 22
-5 5 3 6 -6 2 -20 -4 -16 -1 -33 7 -43 12 -14 12 -16 -1 -11 -25 8 -122 171
-169 283 -7 18 -9 17 -25 -14 -13 -25 -16 -49 -13 -101 3 -37 8 -73 12 -80 4
-6 9 -34 11 -61 2 -27 6 -54 9 -59 4 -6 1 -10 -4 -10 -6 0 -11 -5 -11 -11 0
-5 6 -7 13 -3 9 6 8 3 -1 -8 -8 -9 -12 -25 -11 -35 4 -26 -22 -62 -40 -55 -15
5 20 -42 44 -60 6 -4 6 -8 1 -8 -4 0 -31 16 -60 36 -41 29 -45 30 -18 7 31
-29 42 -53 22 -53 -5 0 -10 -7 -10 -16 0 -8 4 -13 9 -10 4 3 6 -6 3 -20 -3
-18 -8 -22 -17 -14 -9 8 -14 6 -19 -6 -9 -24 -7 -54 4 -54 5 0 7 -7 4 -15 -4
-8 -10 -15 -16 -15 -5 0 -7 4 -4 9 3 5 -2 8 -12 7 -23 -1 -36 -35 -20 -54 11
-13 10 -14 -10 -3 -33 18 -45 5 -38 -40 3 -22 3 -39 -1 -38 -5 1 -10 0 -13 -1
-26 -10 -41 -7 -36 7 5 13 4 14 -9 3 -17 -15 -21 -35 -3 -24 8 5 9 0 6 -14 -4
-15 -2 -22 8 -22 8 0 11 6 7 18 -5 14 -3 15 8 5 10 -10 10 -16 1 -25 -16 -16
-15 -31 1 -21 20 12 41 13 29 1 -7 -7 -4 -16 10 -30 13 -13 18 -28 15 -46 -6
-30 1 -54 14 -46 8 5 10 1 13 -36 1 -8 8 -14 15 -12 7 1 10 -2 6 -8 -7 -12 12
-50 26 -50 8 0 437 226 448 236 2 2 -3 84 -13 181 -10 107 -16 269 -16 406 0
223 -1 229 -26 290 -14 34 -34 71 -45 83 -10 11 -19 26 -19 32 0 25 -18 11
-24 -19z m-317 -798 c7 -5 9 -11 5 -14 -5 -3 -15 1 -22 9 -14 16 -5 18 17 5z
m-59 -50 c0 -6 -4 -13 -10 -16 -5 -3 -10 1 -10 9 0 9 5 16 10 16 6 0 10 -4 10
-9z m0 -96 c0 -8 -7 -15 -16 -15 -14 0 -14 3 -4 15 7 8 14 15 16 15 2 0 4 -7
4 -15z"/>
<path d="M1387 2514 c6 -16 19 -18 27 -5 3 5 -3 11 -13 14 -14 3 -18 1 -14 -9z"/>
<path d="M1661 2458 c-10 -30 -9 -31 4 -13 8 11 19 26 25 33 8 9 7 12 -4 12
-8 0 -19 -15 -25 -32z"/>
<path d="M1171 2424 c0 -11 3 -14 6 -6 3 7 2 16 -1 19 -3 4 -6 -2 -5 -13z"/>
<path d="M1239 2403 c-1 -5 -1 -11 0 -15 0 -5 -3 -8 -9 -8 -5 0 -10 -5 -10
-11 0 -21 25 -2 26 19 1 20 -5 31 -7 15z"/>
<path d="M2057 2386 c-4 -10 -1 -13 9 -9 15 6 19 23 5 23 -5 0 -11 -7 -14 -14z"/>
<path d="M3126 2372 c6 -4 15 -27 19 -52 5 -27 69 -167 160 -346 83 -166 155
-311 158 -324 6 -25 -1 -52 -13 -45 -4 3 -24 -6 -43 -19 -19 -13 -38 -22 -41
-18 -3 3 -6 0 -6 -7 0 -8 -6 -11 -16 -7 -10 4 -13 2 -8 -7 6 -9 5 -9 -8 0 -8
7 -18 10 -21 6 -4 -3 -13 -1 -21 6 -11 9 -15 8 -19 -3 -4 -11 -1 -13 11 -10
14 5 14 3 -2 -10 -11 -9 -16 -22 -12 -31 5 -14 14 -12 63 16 32 18 60 36 61
41 2 4 12 8 23 8 11 0 31 11 44 24 l24 24 18 -33 c10 -18 75 -145 145 -282 70
-136 164 -318 208 -403 285 -545 271 -515 249 -530 -22 -17 -24 -35 -7 -90 9
-27 19 -40 30 -40 22 0 23 -16 4 -52 -13 -25 -13 -28 10 -43 17 -11 24 -25 24
-47 0 -18 10 -47 23 -66 l22 -34 108 5 c60 3 114 11 122 17 7 6 19 33 26 60
l12 48 32 -24 c56 -42 109 -29 103 27 -3 32 -5 34 -46 37 -37 3 -44 0 -49 -17
-6 -25 -16 -26 -33 -6 -7 9 -10 25 -6 41 l7 27 -35 -21 c-44 -26 -58 -17 -121
78 -52 79 -58 84 -84 75 -32 -10 -21 -91 17 -120 14 -11 6 -48 -9 -39 -5 3
-27 37 -50 75 -28 48 -39 78 -35 92 4 15 -11 58 -43 127 -110 234 -181 398
-181 419 0 11 6 22 13 22 6 1 -1 4 -18 8 -27 6 -37 22 -123 206 -52 110 -124
261 -160 335 -36 74 -65 138 -64 142 1 4 -13 33 -32 65 -87 154 -187 325 -224
386 -23 37 -62 108 -87 157 -25 50 -50 90 -56 90 -8 0 -8 4 0 14 9 11 6 18
-18 35 -16 12 -35 21 -43 21 -9 0 -10 -3 -2 -8z"/>
<path d="M1056 2349 c-2 -8 -7 -35 -11 -60 -4 -33 -16 -58 -40 -87 -19 -22
-35 -44 -35 -49 -1 -4 -18 -28 -40 -51 -38 -42 -40 -43 -62 -28 -37 26 -41 18
-6 -14 18 -16 28 -30 23 -30 -13 0 -10 -71 6 -118 12 -37 11 -49 -3 -44 -5 1
-8 -8 -8 -20 1 -21 2 -21 11 -5 6 10 22 17 39 17 24 0 28 3 23 17 -4 11 -8 12
-11 5 -2 -7 -8 -12 -14 -12 -6 0 -3 9 6 19 13 14 16 28 11 55 -4 20 -12 36
-18 36 -8 0 -8 3 0 11 8 8 17 7 34 -1 19 -10 16 -5 -9 19 -35 34 -37 50 -4 32
17 -9 19 -7 16 18 -2 17 3 34 11 41 8 7 15 21 15 31 0 10 14 38 31 62 21 30
33 62 38 103 8 56 7 83 -3 53z"/>
<path d="M1250 2350 c0 -6 7 -10 15 -10 8 0 15 2 15 4 0 2 -7 6 -15 10 -8 3
-15 1 -15 -4z"/>
<path d="M2060 2309 c0 -11 5 -17 10 -14 6 3 10 13 10 21 0 8 -4 14 -10 14 -5
0 -10 -9 -10 -21z"/>
<path d="M2890 2310 c-9 -6 -10 -10 -3 -10 6 0 15 5 18 10 8 12 4 12 -15 0z"/>
<path d="M1256 2283 c-6 -14 -5 -15 5 -6 7 7 10 15 7 18 -3 3 -9 -2 -12 -12z"/>
<path d="M1684 2273 c-11 -10 -21 -28 -21 -40 -2 -19 1 -21 17 -11 15 10 34
57 26 66 -2 1 -12 -6 -22 -15z"/>
<path d="M2061 2227 c-13 -21 -12 -21 5 -5 10 10 16 20 13 22 -3 3 -11 -5 -18
-17z"/>
<path d="M926 2167 c3 -10 9 -15 12 -12 3 3 0 11 -7 18 -10 9 -11 8 -5 -6z"/>
<path d="M2073 2142 c-9 -5 -10 -17 -4 -37 l8 -30 4 38 c3 20 5 37 4 37 0 0
-5 -4 -12 -8z"/>
<path d="M1715 2129 c-9 -14 -2 -20 14 -10 8 6 9 11 3 15 -6 3 -14 1 -17 -5z"/>
<path d="M1651 2084 c0 -11 3 -14 6 -6 3 7 2 16 -1 19 -3 4 -6 -2 -5 -13z"/>
<path d="M1665 2020 c3 -5 8 -10 11 -10 2 0 4 5 4 10 0 6 -5 10 -11 10 -5 0
-7 -4 -4 -10z"/>
<path d="M2082 1990 c0 -14 2 -19 5 -12 2 6 2 18 0 25 -3 6 -5 1 -5 -13z"/>
<path d="M2075 1941 c2 -9 6 -23 10 -32 6 -16 -20 -47 -31 -36 -4 3 -13 -1
-21 -9 -25 -25 -8 -26 37 -3 37 19 41 25 35 48 -3 14 -6 31 -7 37 -1 6 -7 11
-14 11 -7 0 -11 -7 -9 -16z"/>
<path d="M2020 1928 c0 -17 18 -44 24 -37 8 7 -5 49 -15 49 -5 0 -9 -6 -9 -12z"/>
<path d="M1690 1910 c0 -5 9 -8 20 -7 21 1 18 10 -5 13 -8 1 -15 -2 -15 -6z"/>
<path d="M1710 1840 c0 -5 5 -10 11 -10 5 0 7 5 4 10 -3 6 -8 10 -11 10 -2 0
-4 -4 -4 -10z"/>
<path d="M1535 1820 c-3 -5 1 -10 9 -10 9 0 16 5 16 10 0 6 -4 10 -9 10 -6 0
-13 -4 -16 -10z"/>
<path d="M1621 1802 c-6 -11 -5 -27 4 -47 l14 -30 -4 29 c-2 16 0 37 6 47 6
13 6 19 0 19 -6 0 -15 -8 -20 -18z"/>
<path d="M1652 1788 c-10 -35 -7 -48 10 -48 5 0 8 6 5 14 -3 8 -1 17 6 20 9 3
9 5 0 5 -6 1 -9 10 -6 21 3 11 3 20 -1 20 -3 0 -9 -15 -14 -32z"/>
<path d="M915 1779 c-4 -6 -5 -12 -2 -15 2 -3 7 2 10 11 7 17 1 20 -8 4z"/>
<path d="M1730 1770 c0 -5 7 -7 15 -4 8 4 15 8 15 10 0 2 -7 4 -15 4 -8 0 -15
-4 -15 -10z"/>
<path d="M915 1733 c-11 -11 -14 -18 -6 -21 6 -2 8 -9 5 -14 -4 -7 -2 -8 5 -4
6 4 8 12 5 18 -4 6 0 14 7 19 7 4 11 11 7 14 -3 3 -14 -2 -23 -12z"/>
<path d="M701 1727 c0 -10 -12 -22 -26 -27 -14 -5 -25 -14 -25 -20 0 -6 -8
-10 -17 -8 -13 2 -18 -4 -19 -22 0 -14 -3 -31 -8 -38 -4 -7 -2 -12 4 -12 7 0
10 -7 6 -15 -3 -8 -3 -15 1 -15 10 0 32 34 33 52 0 20 40 13 40 -8 0 -17 5
-17 31 -3 16 8 19 16 13 47 -4 20 -10 39 -14 42 -4 3 -10 14 -13 25 -4 17 -5
17 -6 2z m29 -98 c0 -14 -17 -10 -23 5 -4 10 -1 13 9 9 7 -3 14 -9 14 -14z"/>
<path d="M947 1726 c-4 -10 -1 -13 9 -9 7 3 14 9 14 14 0 14 -17 10 -23 -5z"/>
<path d="M1640 1722 c-12 -4 -13 -42 -1 -42 5 0 8 8 7 18 -1 12 5 16 21 14 12
-2 23 1 26 5 5 8 -33 11 -53 5z"/>
<path d="M827 1679 c7 -7 15 -10 18 -7 3 3 -2 9 -12 12 -14 6 -15 5 -6 -5z"/>
<path d="M1699 1673 c-13 -16 -12 -17 4 -4 16 13 21 21 13 21 -2 0 -10 -8 -17
-17z"/>
<path d="M4173 1622 c96 -102 137 -226 116 -354 -20 -122 -79 -212 -182 -279
-33 -22 -56 -39 -51 -39 20 0 101 59 141 102 107 118 138 275 83 420 -26 69
-83 150 -128 184 -29 22 -24 14 21 -34z"/>
<path d="M759 1635 c-7 -69 -7 -85 2 -85 6 0 9 6 6 13 -2 6 0 20 5 30 5 11 5
24 -1 35 -6 9 -11 13 -12 7z"/>
<path d="M907 1633 c-4 -3 -7 -11 -7 -17 0 -6 5 -5 12 2 6 6 9 14 7 17 -3 3
-9 2 -12 -2z"/>
<path d="M442 1616 c4 -5 -1 -21 -12 -36 -11 -15 -24 -38 -30 -51 -5 -13 -14
-31 -19 -39 -5 -8 -16 -31 -24 -52 -14 -33 -14 -37 0 -42 9 -4 13 -9 9 -13 -8
-9 86 -61 150 -84 30 -10 54 -16 54 -13 0 3 -13 19 -30 37 -22 24 -34 53 -50
117 -11 47 -18 96 -15 108 2 12 0 22 -5 22 -5 0 -7 6 -4 13 3 8 -3 20 -13 28
-10 7 -15 9 -11 5z"/>
<path d="M666 1605 c4 -8 8 -15 10 -15 2 0 4 7 4 15 0 8 -4 15 -10 15 -5 0 -7
-7 -4 -15z"/>
<path d="M3353 1610 c-30 -12 -29 -16 4 -14 15 0 29 6 31 12 4 14 -4 14 -35 2z"/>
<path d="M3385 1535 c-44 -24 -84 -46 -90 -48 -5 -2 -6 -8 -2 -13 4 -5 11 -4
15 1 7 10 27 17 50 18 6 0 12 4 12 9 0 4 12 8 26 8 20 0 25 4 20 16 -3 8 -2
13 3 10 5 -3 11 0 14 8 3 9 15 12 31 9 19 -4 26 -1 26 11 0 24 -17 19 -105
-29z"/>
<path d="M705 1560 c4 -6 11 -8 16 -5 14 9 11 15 -7 15 -8 0 -12 -5 -9 -10z"/>
<path d="M3214 1544 c-18 -14 -18 -14 6 -3 31 14 36 19 24 19 -6 0 -19 -7 -30
-16z"/>
<path d="M700 1533 c0 -8 -4 -11 -10 -8 -6 3 -7 -1 -4 -9 3 -9 11 -13 17 -9 6
4 7 1 1 -8 -12 -19 -14 -39 -4 -39 8 0 21 24 26 49 1 8 9 18 16 22 14 10 13
10 -19 14 -14 1 -23 -3 -23 -12z"/>
<path d="M786 1523 c-6 -14 -5 -15 5 -6 7 7 10 15 7 18 -3 3 -9 -2 -12 -12z"/>
<path d="M835 1520 c-3 -6 1 -7 9 -4 18 7 21 14 7 14 -6 0 -13 -4 -16 -10z"/>
<path d="M800 1496 c0 -9 5 -16 10 -16 6 0 10 4 10 9 0 6 -4 13 -10 16 -5 3
-10 -1 -10 -9z"/>
<path d="M825 1470 c-7 -31 -20 -39 -28 -17 -2 6 -3 -20 -3 -59 1 -54 4 -70
14 -67 10 4 10 8 0 21 -11 13 -10 15 9 10 13 -4 26 -2 29 3 3 5 10 7 15 3 6
-3 5 -11 -2 -21 -10 -12 -10 -16 2 -24 11 -7 10 -9 -6 -7 -39 3 -55 -2 -55
-18 0 -8 -4 -12 -10 -9 -6 3 -7 -1 -4 -9 3 -9 1 -16 -5 -16 -6 0 -11 -7 -11
-16 0 -12 5 -11 20 7 14 17 18 19 14 6 -5 -14 -2 -16 12 -10 16 6 17 4 6 -9
-10 -12 -9 -18 3 -28 8 -7 15 -18 14 -24 0 -7 -2 -6 -6 1 -3 8 -14 11 -29 7
-17 -4 -26 -1 -30 10 -3 9 -10 14 -14 11 -4 -2 -25 4 -46 14 -41 20 -59 18
-50 -6 7 -16 -17 -68 -46 -100 -12 -12 -17 -27 -13 -34 5 -8 4 -10 -4 -5 -6 4
-18 2 -26 -4 -8 -7 -15 -9 -15 -4 0 5 -5 1 -11 -8 -5 -10 -18 -18 -28 -18 -19
0 -101 -75 -101 -91 0 -5 -8 -18 -17 -28 -31 -34 -43 -50 -43 -58 0 -4 -13
-21 -28 -38 -16 -16 -35 -46 -42 -65 -17 -40 -47 -73 -60 -65 -6 3 -7 -1 -4
-9 3 -9 2 -16 -3 -16 -4 0 -14 -10 -22 -22 -14 -23 -14 -23 8 -4 11 11 21 14
21 8 0 -6 -10 -18 -22 -27 -13 -8 -24 -20 -24 -25 -1 -6 -2 -15 -3 -21 0 -5
-6 -7 -13 -3 -7 5 -8 3 -4 -5 5 -7 0 -21 -10 -32 -9 -10 -13 -19 -7 -19 5 0
17 -18 26 -41 23 -58 1 -45 -49 29 -39 58 -42 60 -62 46 -12 -8 -19 -21 -16
-29 3 -8 -4 -24 -15 -36 -25 -27 -26 -42 -6 -59 8 -7 15 -9 15 -4 0 5 8 -7 19
-26 10 -19 21 -34 25 -32 3 1 15 2 26 2 18 0 19 3 9 21 -8 16 -8 24 2 33 9 8
11 7 6 -7 -4 -11 -3 -16 4 -11 6 3 17 -3 25 -14 13 -19 59 -28 48 -10 -3 4 0
8 5 8 6 0 25 25 42 55 17 30 37 55 43 55 7 0 21 9 32 21 45 50 163 101 333
145 98 25 151 30 151 15 0 -5 -4 -11 -9 -13 -16 -6 -20 -43 -6 -62 11 -15 17
-16 28 -8 8 7 16 9 19 6 8 -7 20 45 13 56 -7 11 15 18 38 12 17 -4 17 -5 0
-19 -16 -13 -17 -14 -1 -9 10 3 20 1 23 -4 3 -5 18 -5 36 0 31 9 37 4 43 -34
3 -23 13 -29 52 -32 45 -3 70 -23 28 -22 -16 1 -45 -4 -64 -11 -72 -23 -126
-35 -148 -33 -13 2 -30 -2 -38 -9 -8 -6 -17 -9 -21 -6 -3 4 -18 -2 -32 -13
-15 -10 -39 -22 -53 -25 -15 -4 -52 -36 -84 -71 -45 -50 -64 -64 -86 -64 -21
0 -28 5 -28 20 0 11 -5 20 -11 20 -5 0 -7 6 -3 13 5 9 4 9 -5 1 -10 -9 -10
-17 -1 -33 6 -12 8 -27 4 -33 -4 -7 -3 -8 4 -4 8 4 10 2 6 -8 -5 -14 -34 -11
-34 4 0 4 -8 16 -17 26 -17 19 -53 22 -53 4 0 -5 -11 -22 -25 -38 -20 -24 -25
-40 -24 -76 1 -25 -4 -52 -11 -60 -7 -9 -10 -25 -7 -36 9 -33 -14 -23 -65 30
-38 39 -50 47 -54 35 -10 -26 3 -98 20 -107 9 -5 16 -16 16 -23 0 -14 38 -21
79 -16 7 2 10 -2 6 -8 -3 -6 -14 -11 -25 -11 -10 0 -20 -6 -23 -14 -5 -12 26
-15 195 -16 l201 -1 -7 38 c-4 21 -9 59 -11 84 -1 25 -8 62 -13 82 -6 21 -7
37 -1 37 5 0 15 16 24 36 8 19 19 33 24 30 5 -3 19 3 32 13 42 32 137 63 160
51 11 -6 24 -8 29 -5 6 3 10 1 10 -5 0 -6 5 -8 10 -5 11 7 40 -17 40 -32 0 -5
6 -17 13 -27 11 -16 17 -17 36 -7 21 12 22 11 11 -10 l-12 -22 31 22 c17 12
31 17 31 11 0 -6 5 -8 10 -5 9 6 58 -23 88 -52 8 -7 19 -10 25 -6 6 4 8 0 4
-10 -5 -13 0 -15 33 -12 21 2 68 -4 103 -14 l65 -19 -40 92 c-84 194 -111 266
-104 273 4 4 11 1 15 -6 6 -9 11 -10 15 -2 7 10 2 12 -33 15 -8 1 -74 139
-163 346 -82 190 -151 352 -154 360 -3 9 7 22 25 33 23 13 28 21 20 30 -5 7
-30 46 -55 89 -25 42 -52 82 -61 90 -10 8 -14 8 -10 1 4 -7 -1 -14 -12 -18
-13 -4 -18 -12 -15 -23 5 -14 4 -15 -5 -2 -9 12 -11 13 -11 1 0 -8 -3 -11 -7
-8 -3 4 4 18 17 32 23 25 23 25 3 25 -16 0 -23 -8 -28 -30z m80 0 c3 -5 1 -10
-4 -10 -6 0 -11 5 -11 10 0 6 2 10 4 10 3 0 8 -4 11 -10z m-83 -72 c-8 -8 -9
-4 -5 13 4 13 8 18 11 10 2 -7 -1 -18 -6 -23z m43 0 c6 -4 2 -8 -7 -8 -10 0
-18 7 -18 17 0 9 3 12 8 7 4 -5 12 -12 17 -16z m-25 -732 c0 -8 -7 -19 -15
-26 -14 -11 -14 -10 -6 12 5 14 7 29 3 34 -4 4 -1 4 6 0 6 -4 12 -13 12 -20z
m-640 -230 c0 -2 -7 -7 -16 -10 -8 -3 -12 -2 -9 4 6 10 25 14 25 6z"/>
<path d="M3220 1483 c0 -15 -2 -16 -10 -3 -8 12 -12 13 -19 2 -4 -8 -12 -14
-17 -14 -16 -1 -39 -11 -46 -21 -3 -6 -14 -11 -25 -12 -18 -1 -23 -6 -23 -25
0 -14 16 -12 32 3 7 7 17 14 21 14 20 0 126 57 121 65 -9 15 -34 8 -34 -9z"/>
<path d="M721 1436 c-1 -15 -4 -16 -16 -6 -12 10 -13 7 -5 -20 5 -17 6 -38 3
-46 -3 -8 1 -14 10 -14 8 0 17 -6 19 -12 3 -9 10 -7 24 7 17 17 17 18 2 12
-12 -4 -18 -2 -18 9 0 9 -5 12 -12 8 -7 -5 -8 -3 -3 5 4 7 16 11 26 8 11 -3
19 -1 19 4 0 8 -18 13 -48 12 -10 -1 -10 2 -1 13 6 7 9 19 6 26 -3 8 -6 5 -6
-6z"/>
<path d="M3035 1430 c3 -5 8 -10 11 -10 2 0 4 5 4 10 0 6 -5 10 -11 10 -5 0
-7 -4 -4 -10z"/>
<path d="M3283 1419 c-12 -12 -5 -51 8 -43 5 3 7 10 4 15 -3 5 1 6 11 2 14 -5
15 -3 5 15 -14 25 -14 25 -28 11z"/>
<path d="M3111 1391 c-13 -10 -21 -24 -18 -32 4 -10 6 -9 6 4 1 10 5 16 9 13
4 -2 13 4 20 15 15 23 13 23 -17 0z"/>
<path d="M2911 1393 c-1 -19 15 -24 41 -13 22 10 22 10 -4 7 -15 -2 -29 1 -32
7 -3 7 -5 7 -5 -1z"/>
<path d="M3036 1384 c-22 -21 -20 -27 4 -14 11 6 20 15 20 20 0 14 -6 12 -24
-6z"/>
<path d="M3862 1343 c3 -32 41 -45 51 -19 10 26 -3 46 -30 46 -21 0 -24 -4
-21 -27z"/>
<path d="M839 1343 c-13 -16 -12 -17 4 -4 9 7 17 15 17 17 0 8 -8 3 -21 -13z"/>
<path d="M2880 1311 c0 -6 5 -13 10 -16 6 -4 8 -11 5 -16 -4 -5 -2 -9 4 -9 18
0 18 15 -1 33 -10 9 -18 13 -18 8z"/>
<path d="M2833 1284 c-39 -17 -42 -23 -8 -16 15 2 25 0 25 -7 0 -23 15 -10 16
14 1 14 1 25 0 24 0 0 -16 -7 -33 -15z"/>
<path d="M2733 1233 c-24 -5 -32 -23 -10 -23 8 0 9 -3 1 -8 -8 -5 -8 -16 1
-41 7 -22 14 -30 19 -23 7 12 21 103 15 101 -2 -1 -14 -4 -26 -6z"/>
<path d="M2647 1209 c7 -7 15 -10 18 -7 3 3 -2 9 -12 12 -14 6 -15 5 -6 -5z"/>
<path d="M2603 1183 c-15 -6 -17 -29 -3 -38 6 -4 7 1 3 11 -4 11 -2 15 4 11 6
-4 13 0 17 8 6 15 1 17 -21 8z"/>
<path d="M496 1167 c3 -10 9 -15 12 -12 3 3 0 11 -7 18 -10 9 -11 8 -5 -6z"/>
<path d="M2560 1160 c0 -5 5 -10 10 -10 6 0 10 5 10 10 0 6 -4 10 -10 10 -5 0
-10 -4 -10 -10z"/>
<path d="M2495 1150 c3 -5 8 -10 11 -10 2 0 4 5 4 10 0 6 -5 10 -11 10 -5 0
-7 -4 -4 -10z"/>
<path d="M505 1140 c-19 -8 -19 -9 3 -9 12 -1 22 4 22 9 0 6 -1 10 -2 9 -2 0
-12 -4 -23 -9z"/>
<path d="M2401 1106 c2 -2 18 -10 34 -19 29 -14 31 -14 31 3 0 14 -3 16 -13 8
-9 -7 -13 -7 -13 1 0 6 -10 11 -22 11 -12 0 -19 -2 -17 -4z"/>
<path d="M2372 1065 c-13 -7 -19 -15 -14 -19 5 -3 21 3 33 14 27 22 16 25 -19
5z"/>
<path d="M3172 1048 c-18 -11 -31 -23 -28 -25 6 -6 66 29 66 39 0 10 2 11 -38
-14z"/>
<path d="M3088 1039 c-23 -25 -10 -24 22 1 16 13 20 19 10 19 -8 0 -23 -9 -32
-20z"/>
<path d="M2229 1014 c-10 -12 -9 -18 1 -27 10 -10 11 -9 5 2 -6 11 -4 13 8 8
8 -3 20 0 26 7 9 10 7 15 -8 19 -11 3 -26 -2 -32 -9z"/>
<path d="M2325 1020 c-3 -5 -2 -10 4 -10 5 0 13 5 16 10 3 6 2 10 -4 10 -5 0
-13 -4 -16 -10z"/>
<path d="M3195 1020 c-11 -5 -14 -9 -7 -9 17 -1 15 -21 -2 -21 -16 0 -29 -23
-35 -63 0 -4 -17 10 -36 32 -51 56 -113 61 -184 14 -14 -10 -28 -17 -31 -16
-6 2 -8 -8 -14 -80 -2 -27 -7 -51 -10 -54 -3 -4 -6 -18 -6 -32 0 -18 -3 -22
-9 -13 -4 7 -19 11 -32 9 -13 -2 -18 -2 -11 0 6 3 12 11 12 19 0 8 4 13 9 10
4 -3 6 6 3 20 -3 17 -9 23 -19 20 -8 -3 -16 -6 -18 -6 -3 0 -7 -22 -11 -50 -7
-50 -19 -61 -42 -38 -9 9 -12 8 -12 -5 0 -19 -20 -24 -21 -4 -1 31 -109 84
-109 53 0 -9 -16 -16 -46 -21 -25 -3 -64 -13 -86 -21 -22 -8 -56 -14 -75 -14
-23 0 -32 -4 -27 -12 4 -6 3 -8 -3 -5 -6 4 -63 -18 -126 -48 -64 -31 -129 -57
-145 -59 -36 -4 -54 -14 -47 -27 7 -11 -35 -28 -52 -22 -17 7 -55 -16 -47 -29
4 -7 3 -8 -4 -4 -15 9 -89 -13 -103 -31 -12 -14 -39 -18 -39 -5 0 4 33 26 73
50 39 23 87 52 105 63 18 12 63 32 100 44 37 13 116 46 175 75 105 49 109 52
102 78 -9 39 -27 53 -19 16 6 -29 4 -31 -68 -64 -40 -19 -76 -33 -80 -32 -5 1
-8 -3 -8 -9 0 -8 -5 -7 -16 1 -12 11 -15 11 -12 0 2 -8 -4 -15 -14 -17 -19 -5
-32 25 -22 51 6 15 8 15 21 -1 16 -20 7 3 -10 25 -8 11 -12 11 -18 0 -7 -10
-9 -10 -9 2 -1 8 -9 -1 -20 -20 -23 -42 -27 -22 -4 22 11 21 18 27 24 19 10
-18 21 -14 55 18 17 16 48 38 70 50 65 33 72 39 42 38 -14 -1 -23 -5 -21 -9 7
-10 -55 -40 -67 -33 -5 4 -8 1 -7 -7 2 -7 -5 -13 -14 -13 -10 0 -23 -6 -30
-14 -11 -12 -10 -13 2 -6 8 5 11 4 7 0 -14 -16 -39 -15 -33 1 5 13 3 13 -13 2
-33 -23 -71 -75 -71 -97 0 -12 -6 -21 -14 -21 -8 0 -17 -7 -20 -16 -4 -9 -2
-13 5 -8 7 4 10 1 7 -7 -3 -8 -10 -13 -16 -12 -6 2 -24 -16 -40 -40 -19 -26
-53 -55 -91 -77 -70 -40 -73 -52 -37 -123 13 -26 20 -50 15 -53 -4 -2 -6 -11
-2 -20 4 -12 8 -12 21 -2 12 10 16 10 19 0 3 -6 8 -10 13 -7 5 3 7 -3 6 -12
-3 -19 -26 -31 -26 -14 0 6 -5 11 -11 11 -8 0 -8 -5 1 -15 7 -8 24 -15 39 -15
25 -1 26 -1 6 -17 l-20 -16 20 8 c11 4 46 15 77 25 31 10 70 26 87 34 35 18
41 19 41 7 0 -5 -57 -40 -126 -77 -114 -62 -174 -109 -174 -135 0 -24 27 -12
390 174 268 137 444 230 590 310 80 44 168 91 195 104 28 14 96 52 153 86 76
46 98 63 85 68 -10 3 -33 2 -53 -2 -72 -17 -70 -11 21 64 38 30 45 42 41 62
-5 27 -7 28 -37 15z m-120 -86 c13 -8 26 -23 30 -32 4 -11 -2 -9 -22 8 -15 14
-32 28 -37 32 -18 14 4 8 29 -8z m-91 -142 c24 -12 76 2 94 25 6 9 12 13 12 8
0 -21 -45 -55 -74 -55 -29 0 -76 33 -76 54 0 5 6 3 13 -6 6 -8 21 -20 31 -26z
m47 29 c-8 -5 -20 -7 -28 -4 -21 8 -15 13 15 13 20 0 23 -3 13 -9z m-464 -67
c2 -7 -16 -21 -41 -33 -24 -12 -50 -29 -57 -37 -7 -9 -57 -38 -112 -65 -94
-47 -118 -57 -104 -43 9 10 -12 46 -23 39 -5 -3 -7 -12 -4 -20 4 -10 -3 -16
-23 -20 -15 -4 -33 -8 -40 -10 -6 -2 -14 3 -17 11 -3 8 0 14 7 13 23 -3 37 1
37 11 0 5 -8 7 -17 3 -15 -5 -16 -4 -5 8 11 12 16 11 28 -6 14 -19 14 -19 12
5 -3 22 0 24 30 22 21 -2 32 1 32 10 0 10 2 10 9 -1 7 -11 10 -11 17 1 5 8 26
27 47 43 32 24 40 26 48 14 7 -11 13 -9 31 13 36 44 135 72 145 42z m360 10
c-3 -3 -12 -4 -19 -1 -8 3 -5 6 6 6 11 1 17 -2 13 -5z m-38 -17 c-32 -25 -578
-307 -595 -307 -20 0 26 27 216 123 113 58 243 125 290 150 46 25 86 44 89 41
2 -2 2 -5 0 -7z m-822 -49 c-3 -7 -5 -2 -5 12 0 14 2 19 5 13 2 -7 2 -19 0
-25z m47 -4 c3 -8 2 -12 -4 -9 -6 3 -10 10 -10 16 0 14 7 11 14 -7z m-124 -34
c0 -5 -5 -10 -11 -10 -5 0 -7 5 -4 10 3 6 8 10 11 10 2 0 4 -4 4 -10z m105
-50 c-3 -5 -14 -10 -23 -10 -15 0 -15 2 -2 10 20 13 33 13 25 0z m-35 -145
c-5 -14 -8 -30 -6 -37 19 -62 14 -77 -21 -55 -6 4 -24 2 -40 -4 -15 -6 -30
-11 -33 -11 -3 0 -11 -3 -18 -5 -13 -6 -42 14 -42 28 0 5 7 6 15 3 8 -4 15 -1
15 5 0 6 18 20 40 31 22 11 40 23 40 25 0 3 -31 -11 -70 -30 -77 -39 -92 -42
-84 -20 4 8 10 12 15 9 5 -3 9 0 9 6 0 7 6 10 13 7 6 -2 38 9 70 25 32 16 62
26 67 23 6 -4 13 1 16 9 3 9 10 16 15 16 5 0 4 -11 -1 -25z m-145 -33 c-3 -3
-11 0 -18 7 -9 10 -8 11 6 5 10 -3 15 -9 12 -12z m325 -66 c0 -17 -49 -28 -70
-15 -11 6 -6 8 17 9 17 0 35 5 38 10 9 14 15 12 15 -4z m-245 -36 c-3 -5 -14
-10 -23 -10 -15 0 -15 2 -2 10 20 13 33 13 25 0z"/>
<path d="M2304 635 c-11 -14 -21 -20 -25 -14 -3 6 -9 2 -12 -10 -6 -26 -9 -26
58 5 55 26 73 41 35 29 -11 -4 -20 -2 -20 4 0 19 -16 12 -36 -14z"/>
<path d="M2582 976 c9 -10 18 -11 31 -5 25 14 21 19 -13 19 -26 0 -29 -2 -18
-14z"/>
<path d="M2220 959 c0 -5 5 -7 10 -4 6 3 10 8 10 11 0 2 -4 4 -10 4 -5 0 -10
-5 -10 -11z"/>
<path d="M2806 938 c-11 -44 -7 -78 9 -72 10 4 12 11 6 21 -10 18 23 58 39 48
6 -4 10 -2 10 3 0 11 -24 22 -45 22 -7 0 -15 -10 -19 -22z"/>
<path d="M2131 915 c-20 -7 -29 -15 -23 -19 7 -4 26 0 44 8 18 8 40 17 48 19
8 3 4 5 -10 5 -14 0 -40 -6 -59 -13z"/>
<path d="M2032 913 c-20 -4 -21 -7 -10 -21 11 -13 11 -15 -2 -7 -8 4 -12 4 -7
0 4 -5 0 -17 -10 -27 -9 -10 -11 -18 -6 -18 6 0 13 6 16 14 3 8 19 17 36 21
17 4 33 11 37 16 3 6 -5 7 -23 3 -25 -7 -27 -6 -14 9 7 10 12 16 10 16 -2 -1
-14 -4 -27 -6z"/>
<path d="M1910 839 c0 -5 5 -7 10 -4 6 3 10 8 10 11 0 2 -4 4 -10 4 -5 0 -10
-5 -10 -11z"/>
<path d="M2015 830 c-3 -5 -1 -10 4 -10 6 0 11 5 11 10 0 6 -2 10 -4 10 -3 0
-8 -4 -11 -10z"/>
<path d="M1828 803 c7 -3 16 -2 19 1 4 3 -2 6 -13 5 -11 0 -14 -3 -6 -6z"/>
<path d="M1765 790 c4 -6 -13 -20 -37 -31 -42 -20 -42 -20 -9 -15 18 3 37 6
42 6 5 0 13 9 18 19 8 14 7 20 -5 25 -9 3 -12 2 -9 -4z"/>
<path d="M1536 615 c10 -8 23 -15 28 -15 6 0 1 7 -10 15 -10 8 -23 15 -28 15
-6 0 -1 -7 10 -15z"/>
<path d="M1681 604 c0 -11 3 -14 6 -6 3 7 2 16 -1 19 -3 4 -6 -2 -5 -13z"/>
<path d="M1574 554 c3 -9 6 -18 6 -20 0 -3 5 -2 10 1 16 10 12 35 -6 35 -11 0
-14 -5 -10 -16z"/>
<path d="M1350 529 c0 -5 5 -7 10 -4 6 3 10 8 10 11 0 2 -4 4 -10 4 -5 0 -10
-5 -10 -11z"/>
<path d="M152 312 c-22 -7 -22 -7 -3 -19 16 -10 20 -9 24 8 3 10 4 19 4 18 -1
-1 -12 -4 -25 -7z"/>
<path d="M4006 293 c-12 -13 -6 -53 15 -90 17 -31 19 -43 11 -70 -9 -28 -7
-33 9 -38 20 -7 22 -12 23 -60 1 -27 4 -30 39 -33 46 -4 47 -6 -19 138 -23 52
-46 107 -49 123 -8 29 -18 40 -29 30z"/>
<path d="M4560 241 c0 -6 5 -13 10 -16 6 -3 10 1 10 9 0 9 -4 16 -10 16 -5 0
-10 -4 -10 -9z"/>
<path d="M1555 110 c3 -4 14 -10 25 -13 11 -3 18 -2 15 3 -3 4 -14 10 -25 13
-11 3 -18 2 -15 -3z"/>
<path d="M3960 81 c0 -10 3 -33 6 -50 5 -24 12 -31 30 -31 l23 0 -21 50 c-21
51 -38 65 -38 31z"/>
<path d="M4982 25 c-46 -7 -86 -16 -89 -19 -4 -3 46 -6 110 -6 110 0 117 1
117 20 0 24 -14 24 -138 5z"/>
<path d="M275 19 c-4 -6 -5 -12 -2 -15 2 -3 7 2 10 11 7 17 1 20 -8 4z"/>
<path d="M2908 3 c6 -2 18 -2 25 0 6 3 1 5 -13 5 -14 0 -19 -2 -12 -5z"/>
</g>
</svg>
